# xmcd CD database file
#
# Track frame offsets:
#	150
#	23907
#	48700
#	73775
#	96127
#	122689
#	148156
#	176999
#	196485
#	217734
#
# Disc length: 3432 seconds
#
# Revision: 0
# Processed by: cddbd v1.5.2PL0 Copyright (c) Steve Scherf et al.
# Submitted via: CDex 1.70beta2
#
DISCID=990d660a
DTITLE=Ego Wrappin' - Shikisai No Blues - His Choice Of Shoes Is Ill
DYEAR=2000
DGENRE=Jazz
TTITLE0=Nervous Break Down
TTITLE1=Gigolo (feat. Mama! Milk)
TTITLE2=Shikisai No Blues
TTITLE3=Flowers
TTITLE4=Tabacco
TTITLE5=Setsunai Kudarabi Musaboru - Sono Te
TTITLE6=Akai Nukumori
TTITLE7=Mr. Richman
TTITLE8=A Maikage
TTITLE9=Byrd
EXTD=YEAR: 2000
EXTT0=
EXTT1=
EXTT2=
EXTT3=
EXTT4=
EXTT5=
EXTT6=
EXTT7=
EXTT8=
EXTT9=
PLAYORDER=
